<mxfile host="app.diagrams.net" modified="2024-02-22T04:56:08.510Z" agent="Mozilla/5.0 (Windows NT 10.0; Win64; x64; rv:122.0) Gecko/20100101 Firefox/122.0" etag="-nf0Iaen3aOAvQFU4yQ9" version="23.1.5" type="device">
  <diagram name="Page-1" id="Jf69qmAtcN8q32xWqp5m">
    <mxGraphModel dx="2012" dy="1154" grid="1" gridSize="10" guides="1" tooltips="1" connect="1" arrows="1" fold="1" page="1" pageScale="1" pageWidth="1700" pageHeight="1100" math="0" shadow="0">
      <root>
        <mxCell id="0" />
        <mxCell id="1" parent="0" />
        <mxCell id="xo6MDKIAcWHNkqkztQAR-64" value="" style="rounded=1;whiteSpace=wrap;html=1;dashed=1;dashPattern=12 12;opacity=70;movable=1;resizable=1;rotatable=1;deletable=1;editable=1;locked=0;connectable=1;" vertex="1" parent="1">
          <mxGeometry x="510" y="70" width="1080" height="1010" as="geometry" />
        </mxCell>
        <mxCell id="xo6MDKIAcWHNkqkztQAR-1" value="" style="image;sketch=0;aspect=fixed;html=1;points=[];align=center;fontSize=12;image=img/lib/mscae/Azure_Database_for_PostgreSQL_servers.svg;fontFamily=Verdana;" vertex="1" parent="1">
          <mxGeometry x="1014.4" y="850" width="129.2" height="170" as="geometry" />
        </mxCell>
        <mxCell id="xo6MDKIAcWHNkqkztQAR-6" value="" style="edgeStyle=orthogonalEdgeStyle;orthogonalLoop=1;jettySize=auto;html=1;rounded=1;exitX=1;exitY=0.5;exitDx=0;exitDy=0;curved=0;strokeWidth=2;endArrow=classic;endFill=1;startArrow=classic;startFill=1;entryX=0.5;entryY=1;entryDx=0;entryDy=0;fontFamily=Verdana;" edge="1" parent="1" source="xo6MDKIAcWHNkqkztQAR-7" target="xo6MDKIAcWHNkqkztQAR-3">
          <mxGeometry width="80" relative="1" as="geometry">
            <mxPoint x="1190" y="610" as="sourcePoint" />
            <mxPoint x="1435" y="520" as="targetPoint" />
          </mxGeometry>
        </mxCell>
        <mxCell id="xo6MDKIAcWHNkqkztQAR-7" value=".NET Core Web App" style="text;strokeColor=#d79b00;align=center;fillColor=#ffe6cc;html=1;verticalAlign=middle;whiteSpace=wrap;rounded=1;fontSize=28;fontFamily=Verdana;" vertex="1" parent="1">
          <mxGeometry x="929" y="665" width="299" height="70" as="geometry" />
        </mxCell>
        <mxCell id="xo6MDKIAcWHNkqkztQAR-8" value="" style="edgeStyle=none;orthogonalLoop=1;jettySize=auto;html=1;rounded=1;exitX=0.5;exitY=1;exitDx=0;exitDy=0;entryX=0.503;entryY=-0.02;entryDx=0;entryDy=0;entryPerimeter=0;startArrow=classic;startFill=1;strokeWidth=2;curved=0;fontFamily=Verdana;" edge="1" parent="1" source="xo6MDKIAcWHNkqkztQAR-7" target="xo6MDKIAcWHNkqkztQAR-1">
          <mxGeometry width="80" relative="1" as="geometry">
            <mxPoint x="979" y="630" as="sourcePoint" />
            <mxPoint x="1059" y="630" as="targetPoint" />
            <Array as="points" />
          </mxGeometry>
        </mxCell>
        <mxCell id="xo6MDKIAcWHNkqkztQAR-11" value="" style="group;fontFamily=Verdana;" vertex="1" connectable="0" parent="1">
          <mxGeometry x="560" y="310" width="240" height="552" as="geometry" />
        </mxCell>
        <mxCell id="xo6MDKIAcWHNkqkztQAR-9" value="" style="rounded=1;whiteSpace=wrap;html=1;fontFamily=Verdana;" vertex="1" parent="xo6MDKIAcWHNkqkztQAR-11">
          <mxGeometry x="8.57" y="7.83" width="231.43" height="532.17" as="geometry" />
        </mxCell>
        <mxCell id="xo6MDKIAcWHNkqkztQAR-10" value="Services" style="text;strokeColor=#d79b00;align=center;fillColor=#ffe6cc;html=1;verticalAlign=middle;whiteSpace=wrap;rounded=1;strokeWidth=2;fontSize=16;fontFamily=Verdana;" vertex="1" parent="xo6MDKIAcWHNkqkztQAR-11">
          <mxGeometry width="77.14285714285714" height="31.319148936170215" as="geometry" />
        </mxCell>
        <mxCell id="xo6MDKIAcWHNkqkztQAR-15" value="Alerting" style="text;strokeColor=#d79b00;align=center;fillColor=#ffe6cc;html=1;verticalAlign=middle;whiteSpace=wrap;rounded=1;fontSize=18;fontFamily=Verdana;" vertex="1" parent="xo6MDKIAcWHNkqkztQAR-11">
          <mxGeometry x="50" y="40" width="150" height="60" as="geometry" />
        </mxCell>
        <mxCell id="xo6MDKIAcWHNkqkztQAR-29" value="" style="rounded=1;whiteSpace=wrap;html=1;opacity=50;fontFamily=Verdana;" vertex="1" parent="xo6MDKIAcWHNkqkztQAR-11">
          <mxGeometry x="30" y="325" width="190" height="190" as="geometry" />
        </mxCell>
        <mxCell id="xo6MDKIAcWHNkqkztQAR-16" value="WMI" style="text;strokeColor=#d79b00;align=center;fillColor=#ffe6cc;html=1;verticalAlign=middle;whiteSpace=wrap;rounded=1;fontSize=18;fontFamily=Verdana;" vertex="1" parent="xo6MDKIAcWHNkqkztQAR-11">
          <mxGeometry x="50" y="345" width="150" height="60" as="geometry" />
        </mxCell>
        <mxCell id="xo6MDKIAcWHNkqkztQAR-23" value="SSH" style="text;strokeColor=#d79b00;align=center;fillColor=#ffe6cc;html=1;verticalAlign=middle;whiteSpace=wrap;rounded=1;fontSize=18;fontFamily=Verdana;" vertex="1" parent="xo6MDKIAcWHNkqkztQAR-11">
          <mxGeometry x="50" y="435" width="150" height="60" as="geometry" />
        </mxCell>
        <mxCell id="xo6MDKIAcWHNkqkztQAR-24" value="Service Health" style="text;strokeColor=#d79b00;align=center;fillColor=#ffe6cc;html=1;verticalAlign=middle;whiteSpace=wrap;rounded=1;fontSize=18;fontFamily=Verdana;" vertex="1" parent="xo6MDKIAcWHNkqkztQAR-11">
          <mxGeometry x="50" y="110" width="150" height="60" as="geometry" />
        </mxCell>
        <mxCell id="xo6MDKIAcWHNkqkztQAR-25" value="CloudAMQP" style="text;strokeColor=#d79b00;align=center;fillColor=#ffe6cc;html=1;verticalAlign=middle;whiteSpace=wrap;rounded=1;fontSize=18;fontFamily=Verdana;" vertex="1" parent="xo6MDKIAcWHNkqkztQAR-11">
          <mxGeometry x="50" y="180" width="150" height="60" as="geometry" />
        </mxCell>
        <mxCell id="xo6MDKIAcWHNkqkztQAR-31" value="" style="image;sketch=0;aspect=fixed;html=1;points=[];align=center;fontSize=12;image=img/lib/mscae/Developer_Tools.svg;fontFamily=Verdana;" vertex="1" parent="xo6MDKIAcWHNkqkztQAR-11">
          <mxGeometry x="30" y="310" width="32.9" height="35" as="geometry" />
        </mxCell>
        <mxCell id="xo6MDKIAcWHNkqkztQAR-58" value="Maintenance Mode" style="text;strokeColor=#d79b00;align=center;fillColor=#ffe6cc;html=1;verticalAlign=middle;whiteSpace=wrap;rounded=1;fontSize=18;fontFamily=Verdana;" vertex="1" parent="xo6MDKIAcWHNkqkztQAR-11">
          <mxGeometry x="50" y="249.90999999999997" width="150" height="60" as="geometry" />
        </mxCell>
        <mxCell id="xo6MDKIAcWHNkqkztQAR-12" value="" style="edgeStyle=none;orthogonalLoop=1;jettySize=auto;html=1;rounded=1;exitX=0;exitY=0.5;exitDx=0;exitDy=0;startArrow=classic;startFill=1;strokeWidth=2;curved=0;entryX=1;entryY=0.718;entryDx=0;entryDy=0;entryPerimeter=0;fontFamily=Verdana;" edge="1" parent="1" source="xo6MDKIAcWHNkqkztQAR-7" target="xo6MDKIAcWHNkqkztQAR-9">
          <mxGeometry width="80" relative="1" as="geometry">
            <mxPoint x="1000" y="740" as="sourcePoint" />
            <mxPoint x="830" y="680" as="targetPoint" />
            <Array as="points" />
          </mxGeometry>
        </mxCell>
        <mxCell id="xo6MDKIAcWHNkqkztQAR-57" value="" style="edgeStyle=orthogonalEdgeStyle;orthogonalLoop=1;jettySize=auto;html=1;rounded=1;exitX=0;exitY=0.75;exitDx=0;exitDy=0;entryX=0;entryY=0.25;entryDx=0;entryDy=0;curved=0;strokeWidth=2;endArrow=classic;endFill=1;startArrow=classic;startFill=1;fontFamily=Verdana;" edge="1" parent="1" source="xo6MDKIAcWHNkqkztQAR-9" target="xo6MDKIAcWHNkqkztQAR-50">
          <mxGeometry width="80" relative="1" as="geometry">
            <mxPoint x="1120" y="710" as="sourcePoint" />
            <mxPoint x="1450" y="483" as="targetPoint" />
          </mxGeometry>
        </mxCell>
        <mxCell id="xo6MDKIAcWHNkqkztQAR-52" value="" style="group;fontFamily=Verdana;" vertex="1" connectable="0" parent="1">
          <mxGeometry x="70" y="900" width="395.715" height="179.41499999999996" as="geometry" />
        </mxCell>
        <mxCell id="xo6MDKIAcWHNkqkztQAR-50" value="" style="rounded=1;whiteSpace=wrap;html=1;rotation=90;fontFamily=Verdana;" vertex="1" parent="xo6MDKIAcWHNkqkztQAR-52">
          <mxGeometry x="120.58000000000001" y="-95.72000000000003" width="166.43" height="383.84" as="geometry" />
        </mxCell>
        <mxCell id="xo6MDKIAcWHNkqkztQAR-32" value="" style="sketch=0;aspect=fixed;pointerEvents=1;shadow=0;dashed=0;html=1;strokeColor=none;labelPosition=center;verticalLabelPosition=bottom;verticalAlign=top;align=center;fillColor=#00188D;shape=mxgraph.mscae.enterprise.application;fontFamily=Verdana;" vertex="1" parent="xo6MDKIAcWHNkqkztQAR-52">
          <mxGeometry x="30" y="38" width="73.53" height="50" as="geometry" />
        </mxCell>
        <mxCell id="xo6MDKIAcWHNkqkztQAR-33" value="" style="sketch=0;aspect=fixed;pointerEvents=1;shadow=0;dashed=0;html=1;strokeColor=none;labelPosition=center;verticalLabelPosition=bottom;verticalAlign=top;align=center;fillColor=#00188D;shape=mxgraph.mscae.enterprise.application;fontFamily=Verdana;" vertex="1" parent="xo6MDKIAcWHNkqkztQAR-52">
          <mxGeometry x="120" y="38" width="73.53" height="50" as="geometry" />
        </mxCell>
        <mxCell id="xo6MDKIAcWHNkqkztQAR-34" value="" style="sketch=0;aspect=fixed;pointerEvents=1;shadow=0;dashed=0;html=1;strokeColor=none;labelPosition=center;verticalLabelPosition=bottom;verticalAlign=top;align=center;fillColor=#00188D;shape=mxgraph.mscae.enterprise.application;fontFamily=Verdana;" vertex="1" parent="xo6MDKIAcWHNkqkztQAR-52">
          <mxGeometry x="210" y="38" width="73.53" height="50" as="geometry" />
        </mxCell>
        <mxCell id="xo6MDKIAcWHNkqkztQAR-35" value="" style="sketch=0;aspect=fixed;pointerEvents=1;shadow=0;dashed=0;html=1;strokeColor=none;labelPosition=center;verticalLabelPosition=bottom;verticalAlign=top;align=center;fillColor=#00188D;shape=mxgraph.mscae.enterprise.application;fontFamily=Verdana;" vertex="1" parent="xo6MDKIAcWHNkqkztQAR-52">
          <mxGeometry x="300" y="38" width="73.53" height="50" as="geometry" />
        </mxCell>
        <mxCell id="xo6MDKIAcWHNkqkztQAR-36" value="" style="sketch=0;aspect=fixed;pointerEvents=1;shadow=0;dashed=0;html=1;strokeColor=none;labelPosition=center;verticalLabelPosition=bottom;verticalAlign=top;align=center;fillColor=#00188D;shape=mxgraph.mscae.enterprise.application;fontFamily=Verdana;" vertex="1" parent="xo6MDKIAcWHNkqkztQAR-52">
          <mxGeometry x="30" y="108" width="73.53" height="50" as="geometry" />
        </mxCell>
        <mxCell id="xo6MDKIAcWHNkqkztQAR-37" value="" style="sketch=0;aspect=fixed;pointerEvents=1;shadow=0;dashed=0;html=1;strokeColor=none;labelPosition=center;verticalLabelPosition=bottom;verticalAlign=top;align=center;fillColor=#00188D;shape=mxgraph.mscae.enterprise.application;fontFamily=Verdana;" vertex="1" parent="xo6MDKIAcWHNkqkztQAR-52">
          <mxGeometry x="300" y="108" width="73.53" height="50" as="geometry" />
        </mxCell>
        <mxCell id="xo6MDKIAcWHNkqkztQAR-38" value="" style="sketch=0;aspect=fixed;pointerEvents=1;shadow=0;dashed=0;html=1;strokeColor=none;labelPosition=center;verticalLabelPosition=bottom;verticalAlign=top;align=center;fillColor=#00188D;shape=mxgraph.mscae.enterprise.application;fontFamily=Verdana;" vertex="1" parent="xo6MDKIAcWHNkqkztQAR-52">
          <mxGeometry x="210" y="108" width="73.53" height="50" as="geometry" />
        </mxCell>
        <mxCell id="xo6MDKIAcWHNkqkztQAR-39" value="" style="sketch=0;aspect=fixed;pointerEvents=1;shadow=0;dashed=0;html=1;strokeColor=none;labelPosition=center;verticalLabelPosition=bottom;verticalAlign=top;align=center;fillColor=#00188D;shape=mxgraph.mscae.enterprise.application;fontFamily=Verdana;" vertex="1" parent="xo6MDKIAcWHNkqkztQAR-52">
          <mxGeometry x="120" y="108" width="73.53" height="50" as="geometry" />
        </mxCell>
        <mxCell id="xo6MDKIAcWHNkqkztQAR-51" value="App Cluster" style="text;strokeColor=#d79b00;align=center;fillColor=#ffe6cc;html=1;verticalAlign=middle;whiteSpace=wrap;rounded=1;strokeWidth=2;fontSize=16;fontFamily=Verdana;" vertex="1" parent="xo6MDKIAcWHNkqkztQAR-52">
          <mxGeometry width="100" height="31.32" as="geometry" />
        </mxCell>
        <mxCell id="xo6MDKIAcWHNkqkztQAR-54" value="CloudAMQP Queues" style="text;strokeColor=#d79b00;align=center;fillColor=#ffe6cc;html=1;verticalAlign=middle;whiteSpace=wrap;rounded=1;fontSize=22;fontFamily=Verdana;" vertex="1" parent="1">
          <mxGeometry x="146.79000000000002" y="490" width="242.14" height="60" as="geometry" />
        </mxCell>
        <mxCell id="xo6MDKIAcWHNkqkztQAR-55" value="" style="edgeStyle=none;orthogonalLoop=1;jettySize=auto;html=1;rounded=1;exitX=0.5;exitY=1;exitDx=0;exitDy=0;entryX=0.006;entryY=0.518;entryDx=0;entryDy=0;entryPerimeter=0;startArrow=classic;startFill=1;strokeWidth=2;curved=0;fontFamily=Verdana;" edge="1" parent="1" source="xo6MDKIAcWHNkqkztQAR-54" target="xo6MDKIAcWHNkqkztQAR-50">
          <mxGeometry width="80" relative="1" as="geometry">
            <mxPoint x="1000" y="740" as="sourcePoint" />
            <mxPoint x="1000" y="857" as="targetPoint" />
            <Array as="points" />
          </mxGeometry>
        </mxCell>
        <mxCell id="xo6MDKIAcWHNkqkztQAR-56" value="" style="edgeStyle=none;orthogonalLoop=1;jettySize=auto;html=1;rounded=1;startArrow=classic;startFill=1;strokeWidth=2;curved=0;fontFamily=Verdana;entryX=-0.005;entryY=0.38;entryDx=0;entryDy=0;entryPerimeter=0;" edge="1" parent="1" target="xo6MDKIAcWHNkqkztQAR-9">
          <mxGeometry width="80" relative="1" as="geometry">
            <mxPoint x="390" y="520" as="sourcePoint" />
            <mxPoint x="560" y="520" as="targetPoint" />
            <Array as="points" />
          </mxGeometry>
        </mxCell>
        <mxCell id="xo6MDKIAcWHNkqkztQAR-61" value="Stratosphere" style="text;align=center;verticalAlign=middle;rounded=1;fontSize=64;fontFamily=Verdana;glass=0;shadow=0;strokeWidth=2;labelBorderColor=none;labelBackgroundColor=none;whiteSpace=wrap;html=1;fontStyle=1;fillColor=#f5f5f5;fontColor=#333333;strokeColor=#666666;gradientColor=none;opacity=90;" vertex="1" parent="1">
          <mxGeometry x="660" y="110" width="800" height="150" as="geometry" />
        </mxCell>
        <mxCell id="xo6MDKIAcWHNkqkztQAR-3" value="Management UI" style="text;strokeColor=#d79b00;align=center;fillColor=#ffe6cc;html=1;verticalAlign=middle;whiteSpace=wrap;rounded=1;fontSize=28;fontFamily=Verdana;" vertex="1" parent="1">
          <mxGeometry x="1310" y="460" width="250" height="60" as="geometry" />
        </mxCell>
        <mxCell id="xo6MDKIAcWHNkqkztQAR-65" value="CloudAMQP API" style="text;strokeColor=#d79b00;align=center;fillColor=#ffe6cc;html=1;verticalAlign=middle;whiteSpace=wrap;rounded=1;fontSize=22;fontFamily=Verdana;" vertex="1" parent="1">
          <mxGeometry x="146.79000000000002" y="390" width="242.14" height="60" as="geometry" />
        </mxCell>
        <mxCell id="xo6MDKIAcWHNkqkztQAR-66" value="" style="edgeStyle=none;orthogonalLoop=1;jettySize=auto;html=1;rounded=1;exitX=1;exitY=0.5;exitDx=0;exitDy=0;startArrow=classic;startFill=1;strokeWidth=2;curved=0;fontFamily=Verdana;entryX=-0.005;entryY=0.192;entryDx=0;entryDy=0;entryPerimeter=0;" edge="1" parent="1" target="xo6MDKIAcWHNkqkztQAR-9">
          <mxGeometry width="80" relative="1" as="geometry">
            <mxPoint x="389.93000000000006" y="420" as="sourcePoint" />
            <mxPoint x="560" y="420" as="targetPoint" />
            <Array as="points" />
          </mxGeometry>
        </mxCell>
        <mxCell id="xo6MDKIAcWHNkqkztQAR-69" value="" style="edgeStyle=orthogonalEdgeStyle;orthogonalLoop=1;jettySize=auto;html=1;rounded=1;exitX=0.5;exitY=1;exitDx=0;exitDy=0;curved=0;strokeWidth=2;endArrow=classic;endFill=1;startArrow=classic;startFill=1;entryX=0.012;entryY=0.5;entryDx=0;entryDy=0;fontFamily=Verdana;entryPerimeter=0;" edge="1" parent="1" source="xo6MDKIAcWHNkqkztQAR-9" target="xo6MDKIAcWHNkqkztQAR-1">
          <mxGeometry width="80" relative="1" as="geometry">
            <mxPoint x="680" y="1010" as="sourcePoint" />
            <mxPoint x="887" y="830" as="targetPoint" />
          </mxGeometry>
        </mxCell>
      </root>
    </mxGraphModel>
  </diagram>
</mxfile>
